<svg viewBox="0 0 260 260" xmlns="http://www.w3.org/2000/svg">
  <rect x="0" y="0" width="260" height="260" rx="60" fill="#0A0A0A"/>
  <rect x="0" y="0" width="260" height="260" rx="60" fill="none" stroke="#3B1C8C" stroke-width="3"/>
  <path d="M124 180 C124 180 72 175 67 142 C62 112 79 88 98 83 C93 63 113 48 132 54 L132 180 Z" fill="#7C3AED"/>
  <path d="M136 180 C136 180 188 175 193 142 C198 112 181 88 162 83 C167 63 147 48 128 54 L128 180 Z" fill="#7C3AED"/>
  <rect x="126" y="54" width="8" height="126" rx="4" fill="#0A0A0A"/>
  <path d="M74 142 C87 134 106 136 124 138" fill="none" stroke="#0A0A0A" stroke-width="5" stroke-linecap="round"/>
  <path d="M186 142 C173 134 154 136 136 138" fill="none" stroke="#0A0A0A" stroke-width="5" stroke-linecap="round"/>
  <path d="M84 162 C96 158 110 160 124 158" fill="none" stroke="#0A0A0A" stroke-width="3.5" stroke-linecap="round"/>
  <path d="M176 162 C164 158 150 160 136 158" fill="none" stroke="#0A0A0A" stroke-width="3.5" stroke-linecap="round"/>
  <circle cx="67" cy="142" r="7" fill="#A78BFA"/>
  <circle cx="193" cy="142" r="7" fill="#A78BFA"/>
  <circle cx="130" cy="54" r="7" fill="#A78BFA"/>
  <line x1="67" y1="142" x2="40" y2="142" stroke="#A78BFA" stroke-width="4" stroke-linecap="round"/>
  <line x1="40" y1="142" x2="40" y2="110" stroke="#A78BFA" stroke-width="4" stroke-linecap="round"/>
  <circle cx="40" cy="110" r="6" fill="#A78BFA"/>
  <line x1="193" y1="142" x2="220" y2="142" stroke="#A78BFA" stroke-width="4" stroke-linecap="round"/>
  <line x1="220" y1="142" x2="220" y2="110" stroke="#A78BFA" stroke-width="4" stroke-linecap="round"/>
  <circle cx="220" cy="110" r="6" fill="#A78BFA"/>
  <line x1="130" y1="54" x2="130" y2="30" stroke="#A78BFA" stroke-width="4" stroke-linecap="round"/>
  <circle cx="130" cy="30" r="6" fill="#A78BFA"/>
</svg>
